<?xml version="1.0" encoding="UTF-8"?>
<!DOCTYPE svg PUBLIC "-//W3C//DTD SVG 1.1//EN" "http://www.w3.org/Graphics/SVG/1.1/DTD/svg11.dtd">
<!-- Creator: CorelDRAW -->
<svg xmlns="http://www.w3.org/2000/svg" xml:space="preserve" width="1.70666in" height="1.70666in" version="1.1" style="shape-rendering:geometricPrecision; text-rendering:geometricPrecision; image-rendering:optimizeQuality; fill-rule:evenodd; clip-rule:evenodd"
viewBox="0 0 1706.66 1706.66"
 xmlns:xlink="http://www.w3.org/1999/xlink"
 xmlns:xodm="http://www.corel.com/coreldraw/odm/2003">
 <defs>
  <style type="text/css">
   <![CDATA[
    .fil1 {fill:#4B6274}
    .fil0 {fill:#E2725A}
   ]]>
  </style>
 </defs>
 <g id="Layer_x0020_1">
  <metadata id="CorelCorpID_0Corel-Layer"/>
  <path class="fil0" d="M853.26 565.28c-11.11,0 -20,-8.89 -20,-20l0 -525.28c0,-26.4 40,-26.3 40,0l0 525.28c0,11.11 -9.03,20 -20,20z"/>
  <path class="fil0" d="M848.95 1133.89c-75.3,0 -97.43,-81.78 -61.25,-87.08 25.87,-3.79 19.12,27.02 34.03,39.44 13.4,11.17 66.39,15.62 66.39,-25.97 0,-49.15 -70.67,-16.79 -100.69,-71.39 -22.51,-40.95 -1.99,-107.73 69.86,-108.19 75.91,-0.49 98.07,82.04 62.08,87.08 -35.7,5 -7.34,-48.66 -61.8,-46.94 -52.59,1.66 -52.25,61.07 -1.95,66.67 102.15,11.37 93.83,146.39 -6.67,146.39z"/>
  <path class="fil0" d="M853.26 920.83c-24.99,0 -20,-29.89 -20,-49.86 0,-26.36 40,-26.36 40,0 0,19.77 4.99,49.86 -20,49.86z"/>
  <path class="fil0" d="M853.26 1164.17c-25.09,0 -20,-30.2 -20,-50.69 0,-26.37 40,-26.26 40,0 0,20.3 5.09,50.69 -20,50.69z"/>
  <path class="fil0" d="M1029.23 1269.72l-352.08 0c-26.33,0 -26.33,-40 0,-40l352.08 0c26.24,0 26.39,40 0,40z"/>
  <path class="fil0" d="M1029.23 1442.63l-352.08 0c-26.33,0 -26.33,-40 0,-40l352.08 0c26.24,0 26.39,40 0,40z"/>
  <path class="fil1" d="M1240.48 1706.66l-774.44 0c-26.11,0 -47.22,-21.25 -47.22,-47.36l-0 -1127.35c0,-4.58 1.53,-8.89 4.44,-12.5l170.69 -213.19c3.75,-4.72 9.58,-7.5 15.56,-7.5l487.64 0c6.11,0 11.81,2.78 15.56,7.5l170.69 213.19c2.92,3.61 4.44,7.92 4.44,12.5l0 1127.5c-0.14,25.97 -21.39,47.22 -47.36,47.22zm-781.66 -1167.77l0 1120.41c0,3.89 3.33,7.22 7.22,7.22l774.3 0c3.89,0 7.22,-3.33 7.22,-7.22l0 -1120.41 -160.28 -200.28 -468.19 0 -160.28 200.28z"/>
  <path class="fil1" d="M853.26 659.17c-62.78,0 -113.74,-51.11 -113.74,-113.75 0,-62.64 51.11,-113.75 113.74,-113.75 62.78,0 113.89,51.11 113.89,113.75 0,62.64 -51.11,113.75 -113.89,113.75zm0 -187.64c-40.69,0 -73.74,33.06 -73.74,73.75 0,40.69 33.06,73.75 73.74,73.75 40.69,0 73.75,-33.06 73.75,-73.75 0,-40.69 -33.06,-73.75 -73.75,-73.75z"/>
  <path class="fil1" d="M1147.15 1586.11l-587.78 0c-11.11,0 -20,-9.03 -20,-20l0 -805.55c0,-11.11 8.89,-20 20,-20l587.78 0c10.97,0 20,8.89 20,20l0 805.55c0,10.97 -9.03,20 -20,20zm-567.78 -40l547.78 0 0 -765.69 -547.78 0 0 765.69z"/>
 </g>
</svg>
